HIERARCHY
ROOT Hips
{
	OFFSET -0.001795 -0.223333 0.028219
	CHANNELS 6 Xposition Yposition Zposition Zrotation Yrotation Xrotation 
	JOINT LeftUpLeg
	{
		OFFSET 0.069520 -0.091406 -0.006815
		CHANNELS 3 Zrotation Yrotation Xrotation
		JOINT LeftLeg
		{
			OFFSET 0.034277 -0.375199 -0.004496
			CHANNELS 3 Zrotation Yrotation Xrotation
			JOINT LeftFoot
			{
				OFFSET -0.013596 -0.397961 -0.043693
				CHANNELS 3 Zrotation Yrotation Xrotation
				JOINT LeftToe
				{
					OFFSET 0.026358 -0.055791 0.119288
					CHANNELS 3 Zrotation Yrotation Xrotation
					End Site
					{
						OFFSET 0.000000 0.000000 0.000000
					}
				}
			}
		}
	}
	JOINT RightUpLeg
	{
		OFFSET -0.067670 -0.090522 -0.004320
		CHANNELS 3 Zrotation Yrotation Xrotation
		JOINT RightLeg
		{
			OFFSET -0.038290 -0.382569 -0.008850
			CHANNELS 3 Zrotation Yrotation Xrotation
			JOINT RightFoot
			{
				OFFSET 0.015774 -0.398415 -0.042312
				CHANNELS 3 Zrotation Yrotation Xrotation
				JOINT RightToe
				{
					OFFSET -0.025372 -0.048144 0.123348
					CHANNELS 3 Zrotation Yrotation Xrotation
					End Site
					{
						OFFSET 0.000000 0.000000 0.000000
					}
				}
			}
		}
	}
	JOINT Spine
	{
		OFFSET -0.002533 0.108963 -0.026696
		CHANNELS 3 Zrotation Yrotation Xrotation
		JOINT Spine1
		{
			OFFSET 0.005487 0.135180 0.001092
			CHANNELS 3 Zrotation Yrotation Xrotation
			JOINT Spine2
			{
				OFFSET 0.001457 0.052922 0.025425
				CHANNELS 3 Zrotation Yrotation Xrotation
				JOINT Neck
				{
					OFFSET -0.002778 0.213870 -0.042857
					CHANNELS 3 Zrotation Yrotation Xrotation
					JOINT Head
					{
						OFFSET 0.005152 0.064970 0.051349
						CHANNELS 3 Zrotation Yrotation Xrotation
						End Site
						{
							OFFSET 0.000000 0.000000 0.000000
						}
					}
				}
				JOINT LeftShoulder
				{
					OFFSET 0.078845 0.121749 -0.034090
					CHANNELS 3 Zrotation Yrotation Xrotation
					JOINT LeftArm
					{
						OFFSET 0.090977 0.030469 -0.008868
						CHANNELS 3 Zrotation Yrotation Xrotation
						JOINT LeftForeArm
						{
							OFFSET 0.259612 -0.012772 -0.027456
							CHANNELS 3 Zrotation Yrotation Xrotation
							JOINT LeftHand
							{
								OFFSET 0.249234 0.008986 -0.001171
								CHANNELS 3 Zrotation Yrotation Xrotation
								End Site
								{
									OFFSET 0.000000 0.000000 0.000000
								}
							}
						}
					}
				}
				JOINT RightShoulder
				{
					OFFSET -0.081759 0.118833 -0.038615
					CHANNELS 3 Zrotation Yrotation Xrotation
					JOINT RightArm
					{
						OFFSET -0.096012 0.032551 -0.009143
						CHANNELS 3 Zrotation Yrotation Xrotation
						JOINT RightForeArm
						{
							OFFSET -0.253742 -0.013329 -0.021401
							CHANNELS 3 Zrotation Yrotation Xrotation
							JOINT RightHand
							{
								OFFSET -0.255298 0.007772 -0.005559
								CHANNELS 3 Zrotation Yrotation Xrotation
								End Site
								{
									OFFSET 0.000000 0.000000 0.000000
								}
							}
						}
					}
				}
			}
		}
	}
}
MOTION
Frames: 8
Frame Time: 0.050000
-0.000493 0.951238 -0.014153 -4.902912 -8.285597 6.625761 12.742622 0.493475 -16.284457 -3.714422 0.549338 7.847480 -0.925306 1.862486 11.229652 0.000000 0.000000 0.000000 -5.500179 0.896857 -10.443989 2.693338 -0.043666 7.562037 -6.948116 -19.054517 16.821543 0.000000 0.000000 0.000000 -13.955602 3.010467 24.184152 1.461365 -0.230465 -15.111689 -2.491765 7.378388 23.520461 -7.607303 6.848865 -12.716812 0.000000 0.000000 0.000000 -25.031680 -23.557230 11.748269 -34.143331 -46.945183 7.339057 8.767482 -37.495547 -1.281696 0.000000 0.000000 0.000000 -3.135184 23.644585 7.737662 37.806555 25.822353 2.832917 105.960168 75.472069 98.147025 0.000000 0.000000 0.000000 
-0.000407 0.951456 -0.014204 -4.843717 -8.192244 6.559300 12.627912 0.463318 -16.101198 -3.634353 0.527990 7.617560 -1.040682 1.718911 11.369310 0.000000 0.000000 0.000000 -5.615811 0.890318 -10.429005 2.731725 -0.052407 7.509056 -6.801796 -18.841365 17.110311 0.000000 0.000000 0.000000 -14.078087 3.036264 24.200193 1.535246 -0.249348 -15.160011 -2.602209 7.588741 23.641488 -7.483486 6.803099 -12.465560 0.000000 0.000000 0.000000 -25.047042 -23.431422 11.577689 -35.031872 -47.099542 7.698462 8.637688 -36.988815 -1.223181 0.000000 0.000000 0.000000 -3.900889 23.633495 7.563697 37.592364 25.996064 2.898614 105.219913 76.523662 98.562577 0.000000 0.000000 0.000000 
-0.000360 0.951466 -0.014359 -4.708780 -7.821671 6.560147 12.571139 0.442216 -16.322360 -3.670592 0.529920 7.725228 -1.232088 1.476891 11.497007 0.000000 0.000000 0.000000 -5.766853 0.872062 -10.289500 2.718752 -0.060294 7.345123 -6.870317 -18.921877 17.327599 0.000000 0.000000 0.000000 -14.225087 3.050648 24.216267 1.428978 -0.206526 -15.189108 -2.688824 7.471748 23.753882 -7.736830 6.995209 -12.305616 0.000000 0.000000 0.000000 -25.135211 -23.519524 11.615299 -35.262974 -47.373499 7.872327 8.457007 -36.268389 -1.143528 0.000000 0.000000 0.000000 -4.590655 23.901095 7.491308 37.609270 26.256908 3.016154 103.709276 77.707907 98.218158 0.000000 0.000000 0.000000 
-0.000329 0.951427 -0.014566 -4.625410 -7.616286 6.497948 12.428858 0.417561 -16.499581 -3.551570 0.505055 7.888743 -1.551188 0.976153 11.534828 0.000000 0.000000 0.000000 -5.854141 0.851037 -10.046765 2.798299 -0.078075 7.235285 -6.902632 -18.945820 17.359664 0.000000 0.000000 0.000000 -14.273620 3.080934 24.505917 1.333271 -0.160691 -15.499512 -2.649627 7.623587 23.954422 -7.727819 7.029943 -12.175008 0.000000 0.000000 0.000000 -25.057102 -23.716178 11.638632 -35.418975 -47.612281 8.004423 8.157305 -36.229127 -1.056705 0.000000 0.000000 0.000000 -4.951183 24.355628 7.544287 37.660808 26.439542 3.113515 102.288002 78.707659 97.866156 0.000000 0.000000 0.000000 
-0.000248 0.951338 -0.014798 -4.589376 -7.135021 6.592713 12.424797 0.393242 -16.687793 -3.586025 0.503229 7.918084 -1.727893 0.708057 11.465265 0.000000 0.000000 0.000000 -5.789954 0.842508 -9.960877 2.845872 -0.094997 7.100035 -7.169942 -19.319968 17.584497 0.000000 0.000000 0.000000 -14.270704 3.063127 24.644697 1.362005 -0.155343 -15.570145 -2.601271 7.621700 24.011866 -7.857815 7.136123 -12.318131 0.000000 0.000000 0.000000 -24.648637 -23.729894 11.497339 -35.953987 -48.154089 8.377255 8.044393 -36.054589 -1.021939 0.000000 0.000000 0.000000 -5.332970 24.646259 7.548463 37.965288 26.658151 3.271249 100.179853 79.762030 96.885064 0.000000 0.000000 0.000000 
-0.000175 0.951371 -0.014966 -4.553220 -6.783327 6.667945 12.417602 0.373497 -16.802643 -3.522127 0.483936 7.901778 -2.025580 0.278411 11.568540 0.000000 0.000000 0.000000 -5.825057 0.840591 -10.005704 2.930476 -0.112940 7.068935 -7.423826 -19.669214 17.553236 0.000000 0.000000 0.000000 -14.233854 3.023805 24.605931 1.439183 -0.175399 -15.453164 -2.658693 7.809129 24.030201 -7.887394 7.198347 -12.350338 0.000000 0.000000 0.000000 -24.238679 -23.969431 11.455442 -36.372189 -48.513060 8.653172 8.115479 -36.003164 -1.057727 0.000000 0.000000 0.000000 -5.299445 24.911513 7.640325 38.198938 26.885017 3.420341 97.465260 80.105865 94.577062 0.000000 0.000000 0.000000 
-0.000181 0.951202 -0.014974 -4.529860 -6.688688 6.791859 12.509450 0.382860 -16.921495 -3.562370 0.491141 7.987839 -2.092063 0.151742 11.500171 0.000000 0.000000 0.000000 -5.744491 0.855595 -10.207516 3.031722 -0.125274 7.227085 -7.626236 -19.966918 17.434712 0.000000 0.000000 0.000000 -14.230023 3.026344 24.647197 1.401466 -0.154351 -15.621152 -2.415266 7.961503 24.265311 -7.937957 7.253699 -12.455530 0.000000 0.000000 0.000000 -23.637715 -24.055744 11.369247 -36.406785 -48.912063 8.768528 8.550787 -36.119153 -1.206108 0.000000 0.000000 0.000000 -5.229035 25.035382 7.694926 38.658994 27.237523 3.616505 95.694209 80.237864 93.008923 0.000000 0.000000 0.000000 
-0.000325 0.951158 -0.014825 -4.487368 -6.434370 6.850792 12.472719 0.366385 -17.079695 -3.691328 0.512937 8.095530 -2.125810 0.110158 11.462929 0.000000 0.000000 0.000000 -5.718465 0.852961 -10.194633 3.076097 -0.136473 7.183717 -7.996647 -20.513706 17.578126 0.000000 0.000000 0.000000 -14.292658 3.013779 24.542582 1.455571 -0.176796 -15.312251 -2.297961 7.911788 24.170562 -8.140897 7.388507 -12.742972 0.000000 0.000000 0.000000 -23.445393 -24.144468 11.361598 -36.114056 -49.043162 8.711654 8.738439 -36.242314 -1.280951 0.000000 0.000000 0.000000 -5.066595 25.197133 7.789546 39.024798 27.434522 3.757808 93.738614 79.732763 90.509877 0.000000 0.000000 0.000000 
